<svg width="83" height="83" viewBox="0 0 83 83" fill="none" xmlns="http://www.w3.org/2000/svg">
<path fill-rule="evenodd" clip-rule="evenodd" d="M41.5769 82.6154C39.0066 82.6154 36.923 80.5318 36.923 77.9615L36.923 5.1923C36.923 2.62205 39.0066 0.538452 41.5769 0.538452C44.1471 0.538452 46.2307 2.62205 46.2307 5.1923L46.2307 77.9615C46.2307 80.5318 44.1471 82.6154 41.5769 82.6154Z" fill="#FBFBFB"/>
<path fill-rule="evenodd" clip-rule="evenodd" d="M82.6154 41.5769C82.6154 44.1472 80.5318 46.2308 77.9615 46.2308H5.1923C2.62205 46.2308 0.538452 44.1472 0.538452 41.5769C0.538452 39.0067 2.62205 36.9231 5.1923 36.9231H77.9615C80.5318 36.9231 82.6154 39.0067 82.6154 41.5769Z" fill="#FBFBFB"/>
</svg>
