<svg width="186" height="206" viewBox="0 0 186 206" fill="none" xmlns="http://www.w3.org/2000/svg">
<path d="M130.713 2.3229e-05C135.1 -0.0102483 138.569 3.38705 138.579 7.91678L138.589 15.6379C167.054 17.8616 185.857 37.1953 185.888 66.8444L186 153.63C186.041 185.956 165.667 205.845 133.009 205.897L53.2362 206C20.7824 206.041 0.153173 185.678 0.112363 153.259L6.84831e-05 67.493C-0.0406724 37.6483 18.0992 18.366 46.5638 15.7614L46.5536 8.04032C46.5434 3.51059 49.9102 0.102995 54.3993 0.102995C58.8883 0.0927001 62.2551 3.49 62.2653 8.01973L62.2755 15.2261L122.878 15.1438L122.868 7.93737C122.857 3.40764 126.224 0.0103414 130.713 2.3229e-05ZM122.898 30.9978L62.2959 31.0802L62.3061 39.4087C62.3061 43.8458 58.9495 47.346 54.4605 47.346C49.9714 47.3563 46.5945 43.8664 46.5945 39.4293L46.5842 31.5023C26.6896 33.4892 15.6812 45.1429 15.7118 67.4724L15.722 70.6741L170.186 70.4682V66.865C169.747 44.7311 158.606 33.1185 138.61 31.389L138.62 39.316C138.62 43.7428 135.161 47.2534 130.774 47.2534C126.285 47.2637 122.908 43.7634 122.908 39.3366L122.898 30.9978Z" fill="#00BFA6"/>
</svg>
