<svg width="76" height="83" viewBox="0 0 76 83" fill="none" xmlns="http://www.w3.org/2000/svg">
<path fill-rule="evenodd" clip-rule="evenodd" d="M53.2726 0C54.8694 0 56.1654 1.29597 56.1654 2.89279L56.1672 6.16285C61.7989 6.54896 66.4762 8.47799 69.7866 11.7953C73.4007 15.4248 75.3022 20.6434 75.2831 26.9034V62.0913C75.2831 74.943 67.1214 82.9271 53.9881 82.9271H21.3651C8.23184 82.9271 0.0703125 74.8311 0.0703125 61.7981V26.8956C0.0703125 14.7737 7.34879 6.99261 19.2194 6.16417L19.2218 2.89279C19.2218 1.29597 20.5177 0 22.1146 0C23.7114 0 25.0073 1.29597 25.0073 2.89279L25.0062 6.09029H50.3779L50.3798 2.89279C50.3798 1.29597 51.6758 0 53.2726 0ZM69.4973 34.3432H5.8559V61.7981C5.8559 71.6954 11.3638 77.1415 21.3651 77.1415H53.9881C63.9895 77.1415 69.4975 71.7956 69.4975 62.0913L69.4973 34.3432ZM54.8451 58.613C56.442 58.613 57.7379 59.909 57.7379 61.5058C57.7379 63.1026 56.442 64.3986 54.8451 64.3986C53.2483 64.3986 51.9369 63.1026 51.9369 61.5058C51.9369 59.909 53.2136 58.613 54.8104 58.613H54.8451ZM37.7295 58.613C39.3263 58.613 40.6223 59.909 40.6223 61.5058C40.6223 63.1026 39.3263 64.3986 37.7295 64.3986C36.1326 64.3986 34.8212 63.1026 34.8212 61.5058C34.8212 59.909 36.0979 58.613 37.6947 58.613H37.7295ZM20.5779 58.613C22.1747 58.613 23.4707 59.909 23.4707 61.5058C23.4707 63.1026 22.1747 64.3986 20.5779 64.3986C18.9811 64.3986 17.6658 63.1026 17.6658 61.5058C17.6658 59.909 18.9464 58.613 20.5432 58.613H20.5779ZM54.8451 43.6218C56.442 43.6218 57.7379 44.9177 57.7379 46.5146C57.7379 48.1114 56.442 49.4073 54.8451 49.4073C53.2483 49.4073 51.9369 48.1114 51.9369 46.5146C51.9369 44.9177 53.2136 43.6218 54.8104 43.6218H54.8451ZM37.7295 43.6218C39.3263 43.6218 40.6223 44.9177 40.6223 46.5146C40.6223 48.1114 39.3263 49.4073 37.7295 49.4073C36.1326 49.4073 34.8212 48.1114 34.8212 46.5146C34.8212 44.9177 36.0979 43.6218 37.6947 43.6218H37.7295ZM20.5779 43.6218C22.1747 43.6218 23.4707 44.9177 23.4707 46.5146C23.4707 48.1114 22.1747 49.4073 20.5779 49.4073C18.9811 49.4073 17.6658 48.1114 17.6658 46.5146C17.6658 44.9177 18.9464 43.6218 20.5432 43.6218H20.5779ZM50.3779 11.8759H25.0062L25.0073 15.5864C25.0073 17.1832 23.7114 18.4792 22.1146 18.4792C20.5177 18.4792 19.2218 17.1832 19.2218 15.5864L19.2197 11.9634C10.579 12.6893 5.8559 17.927 5.8559 26.8956V28.5576H69.4973L69.4975 26.8956C69.5128 22.1322 68.2322 18.4294 65.6904 15.8837C63.4592 13.6459 60.1974 12.3094 56.1687 11.9653L56.1654 15.5864C56.1654 17.1832 54.8694 18.4792 53.2726 18.4792C51.6758 18.4792 50.3798 17.1832 50.3798 15.5864L50.3779 11.8759Z" fill="#3F3D56"/>
</svg>
