<svg width="53" height="58" viewBox="0 0 53 58" fill="none" xmlns="http://www.w3.org/2000/svg">
<path d="M36.8605 0.146003C38.0755 0.143158 39.0361 1.08402 39.039 2.3385L39.0418 4.47682C46.9249 5.09266 52.1323 10.447 52.1408 18.6582L52.1718 42.6929C52.1831 51.6453 46.5406 57.1536 37.4962 57.1679L15.4037 57.1964C6.41584 57.2078 0.702699 51.5683 0.691397 42.5902L0.660297 18.8378C0.649014 10.5725 5.67274 5.23236 13.5559 4.51103L13.553 2.37271C13.5502 1.11823 14.4826 0.17452 15.7258 0.17452C16.969 0.171669 17.9015 1.11253 17.9043 2.36701L17.9071 4.36278L34.6905 4.33997L34.6877 2.3442C34.6849 1.08972 35.6173 0.14886 36.8605 0.146003ZM34.6962 8.73065L17.9128 8.75346L17.9156 11.06C17.9156 12.2888 16.986 13.2582 15.7428 13.2582C14.4996 13.261 13.5643 12.2945 13.5643 11.0657L13.5615 8.87036C8.0518 9.42062 5.0031 12.6481 5.01155 18.8321L5.0144 19.7188L47.7923 19.6617V18.6639C47.6708 12.534 44.5854 9.31798 39.0474 8.83899L39.0503 11.0343C39.0503 12.2603 38.0924 13.2325 36.8775 13.2325C35.6342 13.2354 34.699 12.266 34.699 11.04L34.6962 8.73065Z" fill="#00BFA6"/>
</svg>

