<svg width="10" height="9" viewBox="0 0 10 9" fill="none" xmlns="http://www.w3.org/2000/svg">
<path fill-rule="evenodd" clip-rule="evenodd" d="M6.67625 0.0655518C8.17795 0.0655518 9.18692 1.11927 9.18692 2.68699V6.30632C9.18692 7.87404 8.17795 8.92776 6.67581 8.92776H2.83493C1.33323 8.92776 0.324707 7.87404 0.324707 6.30632V2.68699C0.324707 1.11927 1.33323 0.0655518 2.83493 0.0655518H6.67625ZM6.67625 0.730217H2.83493C1.71386 0.730217 0.989373 1.49813 0.989373 2.68699V6.30632C0.989373 7.49518 1.71386 8.2631 2.83493 8.2631H6.67581C7.79732 8.2631 8.52225 7.49518 8.52225 6.30632V2.68699C8.52225 1.49813 7.79776 0.730217 6.67625 0.730217ZM4.75541 2.22953C4.93886 2.22953 5.08775 2.37841 5.08775 2.56186V4.30594L6.4286 5.10487C6.5859 5.19925 6.63775 5.40308 6.54381 5.56083C6.48133 5.66496 6.37099 5.72301 6.258 5.72301C6.19995 5.72301 6.14146 5.70794 6.08785 5.67648L4.58526 4.78007C4.48512 4.71981 4.42308 4.61124 4.42308 4.49471V2.56186C4.42308 2.37841 4.57197 2.22953 4.75541 2.22953Z" fill="#FBFBFB"/>
</svg>
