<svg width="10" height="8" viewBox="0 0 10 8" fill="none" xmlns="http://www.w3.org/2000/svg">
<path d="M4.07631 7.38482C4.03348 7.34414 3.85032 7.19052 3.69967 7.04742C2.75215 6.20847 1.20126 4.01989 0.727872 2.8744C0.651805 2.70044 0.490808 2.26062 0.480469 2.02563C0.480469 1.80046 0.533642 1.58581 0.641466 1.38098C0.792123 1.12565 1.02919 0.920818 1.30909 0.808583C1.50332 0.736332 2.08453 0.624098 2.09487 0.624098C2.73073 0.511863 3.76392 0.450134 4.90566 0.450134C5.9935 0.450134 6.98459 0.511863 7.63005 0.603755C7.64039 0.614277 8.36266 0.726512 8.61007 0.849268C9.06204 1.07444 9.34268 1.51426 9.34268 1.98494V2.02563C9.3316 2.33217 9.05096 2.97681 9.04062 2.97681C8.56649 4.06058 7.09168 6.19865 6.11166 7.05794C6.11166 7.05794 5.85983 7.29995 5.70253 7.40517C5.47654 7.56931 5.19664 7.65068 4.91674 7.65068C4.60435 7.65068 4.31337 7.55879 4.07631 7.38482Z" fill="#536DFE"/>
</svg>
