<svg width="80" height="81" viewBox="0 0 80 81" fill="none" xmlns="http://www.w3.org/2000/svg">
<path fill-rule="evenodd" clip-rule="evenodd" d="M50.0277 4.10545C51.6245 4.10545 52.9205 5.40142 52.9205 6.99824C52.9205 8.59506 51.6245 9.89103 50.0277 9.89103H21.9946C12.3211 9.89103 6.06879 16.5406 6.06879 26.8389V58.0117C6.06879 68.445 12.1707 74.9249 21.9946 74.9249H55.1807C64.8542 74.9249 71.1065 68.2869 71.1065 58.0117V30.8619C71.1065 29.265 72.4025 27.9691 73.9993 27.9691C75.5961 27.9691 76.8921 29.265 76.8921 30.8619V58.0117C76.8921 71.5885 68.1674 80.7105 55.1807 80.7105H21.9946C9.00787 80.7105 0.283203 71.5885 0.283203 58.0117V26.8389C0.283203 13.2428 9.00787 4.10545 21.9946 4.10545H50.0277ZM58.1869 30.4484C59.452 31.4281 59.6834 33.2447 58.7037 34.506L47.4026 49.0857C46.932 49.6951 46.2377 50.0924 45.474 50.1849C44.7026 50.2891 43.9389 50.0654 43.3295 49.591L32.4603 41.0514L22.6981 53.7373C22.1273 54.4778 21.271 54.8674 20.4032 54.8674C19.786 54.8674 19.165 54.6707 18.6405 54.2696C17.3754 53.2937 17.1362 51.4771 18.1121 50.2119L29.6562 35.208C30.1268 34.5947 30.8249 34.1974 31.5886 34.101C32.3678 34.0007 33.1315 34.2167 33.737 34.6989L44.6139 43.2422L54.1293 30.9652C55.109 29.6963 56.9218 29.461 58.1869 30.4484ZM69.5845 0.857422C75.2698 0.857422 79.8906 5.47818 79.8906 11.1635C79.8906 16.8488 75.2698 21.4734 69.5845 21.4734C63.9031 21.4734 59.2784 16.8488 59.2784 11.1635C59.2784 5.47818 63.9031 0.857422 69.5845 0.857422ZM69.5845 6.64301C67.0928 6.64301 65.064 8.66796 65.064 11.1635C65.064 13.6551 67.0928 15.6878 69.5845 15.6878C72.0762 15.6878 74.105 13.6551 74.105 11.1635C74.105 8.66796 72.0762 6.64301 69.5845 6.64301Z" fill="#3F3D56"/>
</svg>
