<svg width="33" height="32" viewBox="0 0 33 32" fill="none" xmlns="http://www.w3.org/2000/svg">
<path d="M10.2891 18.0423C12.5019 18.0423 14.2752 19.8329 14.2752 22.0614V27.4113C14.2752 29.6241 12.5019 31.4288 10.2891 31.4288H4.98468C2.78759 31.4288 0.998535 29.6241 0.998535 27.4113V22.0614C0.998535 19.8329 2.78759 18.0423 4.98468 18.0423H10.2891ZM10.2891 0.0422974C12.5019 0.0422974 14.2752 1.84705 14.2752 4.0614V9.41131C14.2752 11.6398 12.5019 13.4288 10.2891 13.4288H4.98468C2.78759 13.4288 0.998535 11.6398 0.998535 9.41131V4.0614C0.998535 1.84705 2.78759 0.0422974 4.98468 0.0422974H10.2891ZM28.3995 0.0422974C30.5966 0.0422974 32.3857 1.84705 32.3857 4.0614V9.41131C32.3857 11.6398 30.5966 13.4288 28.3995 13.4288H23.0951C20.8824 13.4288 19.109 11.6398 19.109 9.41131V4.0614C19.109 1.84705 20.8824 0.0422974 23.0951 0.0422974H28.3995Z" fill="#00BFA6"/>
</svg>
