<svg width="78" height="82" viewBox="0 0 78 82" fill="none" xmlns="http://www.w3.org/2000/svg">
<path d="M27.2375 76.9707V64.434C27.2375 61.2337 29.8542 58.6394 33.082 58.6394H44.8812C46.4313 58.6394 47.9179 59.2499 49.0139 60.3366C50.11 61.4233 50.7257 62.8972 50.7257 64.434V76.9707C50.7159 78.3011 51.2422 79.5805 52.1876 80.5247C53.1331 81.4689 54.4196 82 55.7615 82H63.8115C67.5711 82.0096 71.1801 80.5356 73.8421 77.9033C76.504 75.2709 78 71.6966 78 67.969V32.2541C78 29.2431 76.6538 26.3869 74.3242 24.4551L46.9397 2.77106C42.1761 -1.0309 35.3509 -0.908141 30.7295 3.06261L3.96984 24.4551C1.5302 26.33 0.0720568 29.1946 0 32.2541V67.9326C0 75.7018 6.35241 82 14.1885 82H22.0547C24.8419 82 27.107 79.7704 27.1272 77.0071L27.2375 76.9707Z" fill="#536DFE"/>
</svg>
