<svg width="8" height="10" viewBox="0 0 8 10" fill="none" xmlns="http://www.w3.org/2000/svg">
<path d="M7.44494 5.86265C7.40426 5.90549 7.25064 6.08864 7.10754 6.2393C6.26859 7.18682 4.08001 8.7377 2.93452 9.21109C2.76056 9.28716 2.32074 9.44816 2.08575 9.4585C1.86058 9.4585 1.64593 9.40532 1.4411 9.2975C1.18577 9.14684 0.980937 8.90978 0.868703 8.62988C0.796452 8.43565 0.684217 7.85444 0.684217 7.8441C0.571983 7.20823 0.510254 6.17505 0.510254 5.0333C0.510254 3.94546 0.571983 2.95437 0.663875 2.30891C0.674397 2.29857 0.786631 1.5763 0.909388 1.3289C1.13456 0.876924 1.57438 0.596288 2.04506 0.596288L2.08575 0.596288C2.39229 0.607366 3.03693 0.888002 3.03693 0.898342C4.1207 1.37247 6.25876 2.84729 7.11806 3.8273C7.11806 3.8273 7.36007 4.07914 7.46529 4.23644C7.62943 4.46243 7.7108 4.74232 7.7108 5.02222C7.7108 5.33461 7.61891 5.62559 7.44494 5.86265Z" fill="#536DFE"/>
</svg>
