<svg width="215" height="50" viewBox="0 0 215 50" fill="none" xmlns="http://www.w3.org/2000/svg">
<rect x="0.657593" y="2.5553" width="22.7094" height="22.7094" rx="5.81582" fill="#E8E8E8"/>
<path d="M52.5304 19.1329C50.4167 19.1329 48.6687 18.435 47.2862 17.0392C45.9036 15.6434 45.2124 13.9352 45.2124 11.9146C45.2124 9.89404 45.9036 8.18585 47.2862 6.79005C48.6687 5.39426 50.4167 4.69636 52.5304 4.69636C53.8198 4.69636 55.0029 5.00875 56.0797 5.63354C57.1564 6.24503 57.9873 7.07586 58.5722 8.12603L57.3359 8.84387C56.8972 7.9931 56.2458 7.31514 55.3818 6.80999C54.5177 6.30485 53.5672 6.05227 52.5304 6.05227C50.7889 6.05227 49.3666 6.61724 48.2632 7.74717C47.1599 8.8771 46.6082 10.2663 46.6082 11.9146C46.6082 13.563 47.1599 14.9521 48.2632 16.0821C49.3666 17.212 50.7889 17.777 52.5304 17.777C53.5672 17.777 54.5177 17.5244 55.3818 17.0193C56.2458 16.5141 56.8972 15.8362 57.3359 14.9854L58.5722 15.6833C58.0006 16.7335 57.1697 17.5709 56.0797 18.1957C55.0029 18.8205 53.8198 19.1329 52.5304 19.1329ZM61.9842 10.5786C62.5957 9.36896 63.6459 8.76411 65.1348 8.76411V10.0403C64.2308 10.0403 63.4797 10.3061 62.8815 10.8379C62.2833 11.3696 61.9842 12.2071 61.9842 13.3503V18.8936H60.6682V8.92363H61.9842V10.5786ZM70.9409 8.68435C72.4164 8.68435 73.6062 9.20944 74.5101 10.2596C75.4274 11.2965 75.886 12.5261 75.886 13.9485C75.886 14.0947 75.8727 14.3008 75.8461 14.5666H67.0925C67.2254 15.5769 67.6508 16.3812 68.3686 16.9794C69.0998 17.5643 69.997 17.8567 71.0605 17.8567C71.8182 17.8567 72.4696 17.7039 73.0146 17.3981C73.573 17.0791 73.9917 16.667 74.2709 16.1618L75.4274 16.8398C74.9887 17.5443 74.3905 18.1027 73.6328 18.5148C72.8751 18.9268 72.011 19.1329 71.0406 19.1329C69.472 19.1329 68.1958 18.641 67.2121 17.6573C66.2284 16.6736 65.7365 15.4241 65.7365 13.9086C65.7365 12.4198 66.2217 11.1768 67.1922 10.1798C68.1626 9.18285 69.4121 8.68435 70.9409 8.68435ZM70.9409 9.96051C69.904 9.96051 69.0333 10.2729 68.3287 10.8977C67.6375 11.5092 67.2254 12.3068 67.0925 13.2905H74.5301C74.3971 12.2403 73.9917 11.4228 73.3137 10.8379C72.6358 10.253 71.8448 9.96051 70.9409 9.96051ZM86.5536 8.92363H87.8696V18.8936H86.5536V16.9395C85.6363 18.4018 84.2937 19.1329 82.5257 19.1329C81.1033 19.1329 79.887 18.6277 78.8767 17.6175C77.8797 16.6072 77.3812 15.3709 77.3812 13.9086C77.3812 12.4464 77.8797 11.2101 78.8767 10.1998C79.887 9.1895 81.1033 8.68435 82.5257 8.68435C84.2937 8.68435 85.6363 9.41548 86.5536 10.8777V8.92363ZM79.8338 16.7202C80.5915 17.4779 81.522 17.8567 82.6254 17.8567C83.7287 17.8567 84.6593 17.4779 85.417 16.7202C86.1747 15.9491 86.5536 15.012 86.5536 13.9086C86.5536 12.8053 86.1747 11.8747 85.417 11.117C84.6593 10.346 83.7287 9.96051 82.6254 9.96051C81.522 9.96051 80.5915 10.346 79.8338 11.117C79.0761 11.8747 78.6972 12.8053 78.6972 13.9086C78.6972 15.012 79.0761 15.9491 79.8338 16.7202ZM95.9401 10.1998H93.0688V16.2416C93.0688 16.7866 93.1751 17.1788 93.3878 17.4181C93.6005 17.644 93.9196 17.7637 94.3449 17.777C94.7703 17.777 95.3021 17.7637 95.9401 17.7371V18.8936C94.5443 19.1063 93.4942 19.0066 92.7896 18.5945C92.0984 18.1824 91.7528 17.3981 91.7528 16.2416V10.1998H89.6591V8.92363H91.7528V6.53083L93.0688 6.13203V8.92363H95.9401V10.1998ZM102.136 8.68435C103.612 8.68435 104.801 9.20944 105.705 10.2596C106.623 11.2965 107.081 12.5261 107.081 13.9485C107.081 14.0947 107.068 14.3008 107.041 14.5666H98.2876C98.4205 15.5769 98.8459 16.3812 99.5638 16.9794C100.295 17.5643 101.192 17.8567 102.256 17.8567C103.013 17.8567 103.665 17.7039 104.21 17.3981C104.768 17.0791 105.187 16.667 105.466 16.1618L106.623 16.8398C106.184 17.5443 105.586 18.1027 104.828 18.5148C104.07 18.9268 103.206 19.1329 102.236 19.1329C100.667 19.1329 99.391 18.641 98.4073 17.6573C97.4235 16.6736 96.9317 15.4241 96.9317 13.9086C96.9317 12.4198 97.4169 11.1768 98.3873 10.1798C99.3577 9.18285 100.607 8.68435 102.136 8.68435ZM102.136 9.96051C101.099 9.96051 100.228 10.2729 99.5239 10.8977C98.8326 11.5092 98.4205 12.3068 98.2876 13.2905H105.725C105.592 12.2403 105.187 11.4228 104.509 10.8379C103.831 10.253 103.04 9.96051 102.136 9.96051ZM122.734 8.92363H124.05V18.8936H122.734V16.9395C121.816 18.4018 120.474 19.1329 118.706 19.1329C117.283 19.1329 116.067 18.6277 115.057 17.6175C114.06 16.6072 113.561 15.3709 113.561 13.9086C113.561 12.4464 114.06 11.2101 115.057 10.1998C116.067 9.1895 117.283 8.68435 118.706 8.68435C120.474 8.68435 121.816 9.41548 122.734 10.8777V8.92363ZM116.014 16.7202C116.772 17.4779 117.702 17.8567 118.806 17.8567C119.909 17.8567 120.839 17.4779 121.597 16.7202C122.355 15.9491 122.734 15.012 122.734 13.9086C122.734 12.8053 122.355 11.8747 121.597 11.117C120.839 10.346 119.909 9.96051 118.806 9.96051C117.702 9.96051 116.772 10.346 116.014 11.117C115.256 11.8747 114.877 12.8053 114.877 13.9086C114.877 15.012 115.256 15.9491 116.014 16.7202ZM137.404 4.93564C139.305 4.93564 140.874 5.61359 142.11 6.96951C143.36 8.31214 143.985 9.96051 143.985 11.9146C143.985 13.8687 143.36 15.5238 142.11 16.8797C140.874 18.2223 139.305 18.8936 137.404 18.8936H132.021V4.93564H137.404ZM137.404 17.5776C138.933 17.5776 140.183 17.0326 141.153 15.9425C142.137 14.8524 142.629 13.5098 142.629 11.9146C142.629 10.3194 142.137 8.9768 141.153 7.88675C140.183 6.7967 138.933 6.25167 137.404 6.25167H133.416V17.5776H137.404ZM154.527 17.6374C153.517 18.6344 152.281 19.1329 150.819 19.1329C149.356 19.1329 148.113 18.6344 147.09 17.6374C146.079 16.6271 145.574 15.3842 145.574 13.9086C145.574 12.4331 146.079 11.1968 147.09 10.1998C148.113 9.1895 149.356 8.68435 150.819 8.68435C152.281 8.68435 153.517 9.1895 154.527 10.1998C155.551 11.1968 156.063 12.4331 156.063 13.9086C156.063 15.3842 155.551 16.6271 154.527 17.6374ZM148.027 16.7202C148.785 17.4779 149.715 17.8567 150.819 17.8567C151.922 17.8567 152.852 17.4779 153.61 16.7202C154.368 15.9491 154.747 15.012 154.747 13.9086C154.747 12.8053 154.368 11.8747 153.61 11.117C152.852 10.346 151.922 9.96051 150.819 9.96051C149.715 9.96051 148.785 10.346 148.027 11.117C147.269 11.8747 146.89 12.8053 146.89 13.9086C146.89 15.012 147.269 15.9491 148.027 16.7202ZM162.911 19.1329C161.409 19.1329 160.159 18.6344 159.162 17.6374C158.165 16.6271 157.667 15.3842 157.667 13.9086C157.667 12.4331 158.165 11.1968 159.162 10.1998C160.159 9.1895 161.409 8.68435 162.911 8.68435C163.895 8.68435 164.779 8.92363 165.563 9.40219C166.347 9.86746 166.919 10.4989 167.278 11.2965L166.201 11.9146C165.935 11.3164 165.503 10.8445 164.905 10.4989C164.32 10.14 163.655 9.96051 162.911 9.96051C161.808 9.96051 160.877 10.346 160.119 11.117C159.362 11.8747 158.983 12.8053 158.983 13.9086C158.983 15.012 159.362 15.9491 160.119 16.7202C160.877 17.4779 161.808 17.8567 162.911 17.8567C163.655 17.8567 164.32 17.6839 164.905 17.3383C165.49 16.9794 165.949 16.5008 166.281 15.9026L167.378 16.5407C166.965 17.3383 166.361 17.9697 165.563 18.435C164.765 18.9003 163.881 19.1329 162.911 19.1329ZM181.43 8.92363H182.826L178.739 18.8936H177.143L173.056 8.92363H174.451L177.941 17.5178L181.43 8.92363ZM185.753 6.53083C185.567 6.71694 185.341 6.80999 185.075 6.80999C184.809 6.80999 184.583 6.71694 184.397 6.53083C184.211 6.34473 184.118 6.11874 184.118 5.85287C184.118 5.58701 184.211 5.36102 184.397 5.17492C184.583 4.98881 184.809 4.89576 185.075 4.89576C185.341 4.89576 185.567 4.98881 185.753 5.17492C185.939 5.36102 186.032 5.58701 186.032 5.85287C186.032 6.11874 185.939 6.34473 185.753 6.53083ZM184.417 18.8936V8.92363H185.733V18.8936H184.417ZM193.132 8.68435C194.607 8.68435 195.797 9.20944 196.701 10.2596C197.618 11.2965 198.077 12.5261 198.077 13.9485C198.077 14.0947 198.063 14.3008 198.037 14.5666H189.283C189.416 15.5769 189.842 16.3812 190.559 16.9794C191.29 17.5643 192.188 17.8567 193.251 17.8567C194.009 17.8567 194.66 17.7039 195.205 17.3981C195.764 17.0791 196.182 16.667 196.462 16.1618L197.618 16.8398C197.179 17.5443 196.581 18.1027 195.824 18.5148C195.066 18.9268 194.202 19.1329 193.231 19.1329C191.663 19.1329 190.387 18.641 189.403 17.6573C188.419 16.6736 187.927 15.4241 187.927 13.9086C187.927 12.4198 188.412 11.1768 189.383 10.1798C190.353 9.18285 191.603 8.68435 193.132 8.68435ZM193.132 9.96051C192.095 9.96051 191.224 10.2729 190.519 10.8977C189.828 11.5092 189.416 12.3068 189.283 13.2905H196.721C196.588 12.2403 196.182 11.4228 195.504 10.8379C194.827 10.253 194.036 9.96051 193.132 9.96051ZM211.785 8.92363H213.14L210.07 18.8936H208.634L206.062 10.8578L203.489 18.8936H202.054L198.983 8.92363H200.339L202.792 17.1987L205.404 8.92363H206.72L209.332 17.1987L211.785 8.92363Z" fill="#506986"/>
<line x1="47.8766" y1="36.7579" x2="58.4005" y2="36.7579" stroke="#506986" stroke-width="0.830832" stroke-linecap="round"/>
<line x1="47.8766" y1="40.3581" x2="58.4005" y2="40.3581" stroke="#506986" stroke-width="0.830832" stroke-linecap="round"/>
<line x1="47.8766" y1="44.2353" x2="56.4619" y2="44.2353" stroke="#506986" stroke-width="0.830832" stroke-linecap="round"/>
<rect x="68.2321" y="31.6345" width="78.6521" height="18.0014" rx="4.15416" fill="#00BFA6"/>
<path fill-rule="evenodd" clip-rule="evenodd" d="M80.6763 36.0656C82.178 36.0656 83.1869 37.1193 83.1869 38.687V42.3063C83.1869 43.874 82.178 44.9278 80.6758 44.9278H76.8349C75.3332 44.9278 74.3247 43.874 74.3247 42.3063V38.687C74.3247 37.1193 75.3332 36.0656 76.8349 36.0656H80.6763ZM80.6763 36.7302H76.8349C75.7139 36.7302 74.9894 37.4981 74.9894 38.687V42.3063C74.9894 43.4952 75.7139 44.2631 76.8349 44.2631H80.6758C81.7973 44.2631 82.5223 43.4952 82.5223 42.3063V38.687C82.5223 37.4981 81.7978 36.7302 80.6763 36.7302ZM78.7554 38.2295C78.9389 38.2295 79.0877 38.3784 79.0877 38.5619V40.3059L80.4286 41.1049C80.5859 41.1993 80.6377 41.4031 80.5438 41.5608C80.4813 41.665 80.371 41.723 80.258 41.723C80.2 41.723 80.1415 41.7079 80.0878 41.6765L78.5853 40.7801C78.4851 40.7198 78.4231 40.6112 78.4231 40.4947V38.5619C78.4231 38.3784 78.572 38.2295 78.7554 38.2295Z" fill="#FBFBFB"/>
<path d="M90.7021 37.585C91.547 37.585 92.2471 37.8863 92.8024 38.489C93.3637 39.0857 93.6443 39.8183 93.6443 40.6868C93.6443 41.5553 93.3637 42.2909 92.8024 42.8935C92.2471 43.4902 91.547 43.7886 90.7021 43.7886H88.2827V37.585H90.7021ZM90.7021 43.0087C91.3343 43.0087 91.8512 42.7871 92.253 42.344C92.6547 41.9009 92.8556 41.3485 92.8556 40.6868C92.8556 40.0251 92.6547 39.4727 92.253 39.0296C91.8512 38.5865 91.3343 38.3649 90.7021 38.3649H89.1069V43.0087H90.7021ZM97.6647 39.3575H98.4358V43.7886H97.6647V43.1505C97.3516 43.6527 96.8731 43.9038 96.2291 43.9038C95.7091 43.9038 95.2926 43.7413 94.9795 43.4164C94.6664 43.0855 94.5098 42.6394 94.5098 42.0782V39.3575H95.2808V42.0339C95.2808 42.3943 95.3783 42.6749 95.5733 42.8758C95.7682 43.0707 96.037 43.1682 96.3797 43.1682C96.7638 43.1682 97.0739 43.0501 97.3103 42.8137C97.5466 42.5715 97.6647 42.2022 97.6647 41.706V39.3575ZM100.15 41.9275C100.227 42.3234 100.407 42.6306 100.691 42.8492C100.98 43.0678 101.335 43.1771 101.754 43.1771C102.339 43.1771 102.765 42.9614 103.03 42.5301L103.686 42.9024C103.255 43.57 102.605 43.9038 101.737 43.9038C101.033 43.9038 100.46 43.6852 100.017 43.248C99.58 42.8049 99.3614 42.2465 99.3614 41.573C99.3614 40.9054 99.5771 40.35 100.008 39.9069C100.44 39.4638 100.998 39.2423 101.683 39.2423C102.333 39.2423 102.862 39.4727 103.27 39.9335C103.683 40.3884 103.89 40.9379 103.89 41.5819C103.89 41.6941 103.881 41.8093 103.863 41.9275H100.15ZM101.683 39.969C101.27 39.969 100.927 40.0871 100.655 40.3234C100.384 40.5539 100.215 40.864 100.15 41.254H103.11C103.045 40.8345 102.88 40.5155 102.614 40.2969C102.348 40.0783 102.038 39.969 101.683 39.969ZM111.042 37.585V38.3649H109.207V43.7886H108.392V38.3649H106.566V37.585H111.042ZM114.713 43.2303C114.258 43.6793 113.705 43.9038 113.056 43.9038C112.406 43.9038 111.853 43.6793 111.398 43.2303C110.949 42.7812 110.725 42.2288 110.725 41.573C110.725 40.9172 110.949 40.3648 111.398 39.9158C111.853 39.4668 112.406 39.2423 113.056 39.2423C113.705 39.2423 114.258 39.4668 114.713 39.9158C115.168 40.3648 115.395 40.9172 115.395 41.573C115.395 42.2288 115.168 42.7812 114.713 43.2303ZM113.056 43.1505C113.499 43.1505 113.871 42.9998 114.172 42.6985C114.474 42.3972 114.624 42.022 114.624 41.573C114.624 41.124 114.474 40.7488 114.172 40.4475C113.871 40.1462 113.499 39.9955 113.056 39.9955C112.618 39.9955 112.249 40.1462 111.948 40.4475C111.646 40.7488 111.496 41.124 111.496 41.573C111.496 42.022 111.646 42.3972 111.948 42.6985C112.249 42.9998 112.618 43.1505 113.056 43.1505ZM121.09 39.2423C121.586 39.2423 121.988 39.4047 122.295 39.7297C122.602 40.0487 122.756 40.483 122.756 41.0324V43.7886H121.985V41.059C121.985 40.7163 121.896 40.4505 121.719 40.2614C121.542 40.0724 121.305 39.9778 121.01 39.9778C120.679 39.9778 120.413 40.0901 120.212 40.3146C120.017 40.5332 119.92 40.87 119.92 41.3249V43.7886H119.149V41.059C119.149 40.7163 119.063 40.4505 118.892 40.2614C118.726 40.0724 118.499 39.9778 118.209 39.9778C117.885 39.9778 117.613 40.0901 117.394 40.3146C117.181 40.5391 117.075 40.8759 117.075 41.3249V43.7886H116.304V39.3575H117.075V39.9512C117.376 39.4786 117.817 39.2423 118.396 39.2423C118.992 39.2423 119.427 39.4934 119.698 39.9955C120.006 39.4934 120.469 39.2423 121.09 39.2423ZM124.596 40.1019C124.85 39.5524 125.311 39.2777 125.978 39.2777V40.0842C125.6 40.0664 125.275 40.1669 125.004 40.3855C124.732 40.6041 124.596 40.9556 124.596 41.4401V43.7886H123.825V39.3575H124.596V40.1019ZM127.504 40.1019C127.758 39.5524 128.219 39.2777 128.886 39.2777V40.0842C128.508 40.0664 128.183 40.1669 127.911 40.3855C127.64 40.6041 127.504 40.9556 127.504 41.4401V43.7886H126.733V39.3575H127.504V40.1019ZM133.138 43.2303C132.683 43.6793 132.131 43.9038 131.481 43.9038C130.831 43.9038 130.279 43.6793 129.824 43.2303C129.375 42.7812 129.15 42.2288 129.15 41.573C129.15 40.9172 129.375 40.3648 129.824 39.9158C130.279 39.4668 130.831 39.2423 131.481 39.2423C132.131 39.2423 132.683 39.4668 133.138 39.9158C133.593 40.3648 133.821 40.9172 133.821 41.573C133.821 42.2288 133.593 42.7812 133.138 43.2303ZM131.481 43.1505C131.924 43.1505 132.296 42.9998 132.598 42.6985C132.899 42.3972 133.05 42.022 133.05 41.573C133.05 41.124 132.899 40.7488 132.598 40.4475C132.296 40.1462 131.924 39.9955 131.481 39.9955C131.044 39.9955 130.675 40.1462 130.373 40.4475C130.072 40.7488 129.921 41.124 129.921 41.573C129.921 42.022 130.072 42.3972 130.373 42.6985C130.675 42.9998 131.044 43.1505 131.481 43.1505ZM139.776 39.3575H140.583L139.209 43.7886H138.42L137.384 40.5096L136.347 43.7886H135.558L134.184 39.3575H134.991L135.966 42.7251L137.011 39.3575H137.756L138.801 42.734L139.776 39.3575Z" fill="white"/>
</svg>
