<svg width="9" height="10" viewBox="0 0 9 10" fill="none" xmlns="http://www.w3.org/2000/svg">
<path d="M1.24671 4.19209C1.28739 4.14926 1.44101 3.96611 1.58411 3.81545C2.42306 2.86793 4.61164 1.31705 5.75713 0.843656C5.93109 0.767589 6.37091 0.606592 6.6059 0.596253C6.83108 0.596253 7.04572 0.649426 7.25055 0.757249C7.50589 0.907907 7.71071 1.14497 7.82295 1.42487C7.8952 1.6191 8.00743 2.20031 8.00743 2.21065C8.11967 2.84651 8.1814 3.8797 8.1814 5.02145C8.1814 6.10928 8.11967 7.10037 8.02778 7.74584C8.01725 7.75618 7.90502 8.47845 7.78226 8.72585C7.55709 9.17782 7.11727 9.45846 6.64659 9.45846L6.6059 9.45846C6.29936 9.44738 5.65472 9.16675 5.65472 9.15641C4.57095 8.68228 2.43289 7.20746 1.57359 6.22745C1.57359 6.22745 1.33158 5.97561 1.22636 5.81831C1.06222 5.59232 0.980851 5.31242 0.980851 5.03253C0.980851 4.72013 1.07274 4.42916 1.24671 4.19209Z" fill="#536DFE"/>
</svg>
