<svg width="76" height="81" viewBox="0 0 76 81" fill="none" xmlns="http://www.w3.org/2000/svg">
<path fill-rule="evenodd" clip-rule="evenodd" d="M40.4923 0.859375C43.2539 0.859375 45.9384 1.99335 47.8631 3.96431C49.7839 5.94683 50.8446 8.66606 50.7636 11.4239C50.7713 12.0448 50.9757 12.7623 51.346 13.391C51.9593 14.4324 52.9274 15.1652 54.0768 15.4661C55.2262 15.7515 56.4296 15.5972 57.4517 14.9916C62.3888 12.1721 68.6719 13.8615 71.4914 18.76L73.8944 22.9217C73.9561 23.0336 74.0101 23.1416 74.0564 23.2534C76.6098 28.0786 74.9049 34.1535 70.1608 36.9267C69.4703 37.324 68.9111 37.8794 68.5254 38.5505C67.9275 39.5881 67.7617 40.8223 68.0625 41.9563C68.3711 43.1134 69.1078 44.0738 70.1453 44.6678C72.4866 46.0139 74.2338 48.2819 74.9319 50.9008C75.6301 53.5159 75.2482 56.3547 73.8867 58.6959L71.3256 62.9619C68.5061 67.8063 62.2229 69.4841 57.336 66.6608C56.6842 66.2866 55.9321 66.0822 55.1838 66.0629H55.1607C54.046 66.0629 52.9004 66.5373 52.0673 67.3666C51.2226 68.2113 50.7598 69.3376 50.7675 70.5333C50.7405 76.1993 46.1313 80.7815 40.4923 80.7815H35.6594C29.9934 80.7815 25.3842 76.1761 25.3842 70.5101C25.3765 69.812 25.1759 69.0869 24.8018 68.4582C24.1962 67.4013 23.2165 66.6453 22.0864 66.3445C20.964 66.0436 19.7336 66.2095 18.723 66.7958C16.3008 68.1457 13.4504 68.4736 10.8431 67.7407C8.23955 67.0041 5.99089 65.2144 4.67177 62.8423L2.26111 58.6882C-0.558395 53.7975 1.11942 47.5298 6.00246 44.7064C7.38714 43.908 8.24727 42.4192 8.24727 40.8223C8.24727 39.2255 7.38714 37.7328 6.00246 36.9344C1.11557 34.0956 -0.558395 27.8125 2.25726 22.9217L4.87234 18.6288C7.65328 13.7921 13.9403 12.0873 18.8426 14.9029C19.5099 15.3002 20.235 15.5008 20.9717 15.5085C23.3746 15.5085 25.3842 13.526 25.4227 11.0883C25.4073 8.39992 26.468 5.81955 28.4004 3.87174C30.3405 1.92778 32.917 0.859375 35.6594 0.859375H40.4923ZM40.4923 6.64496H35.6594C34.4637 6.64496 33.3451 7.11166 32.5004 7.9525C31.6596 8.7972 31.2006 9.9196 31.2083 11.1153C31.1273 16.7543 26.5181 21.2941 20.937 21.2941C19.1473 21.2748 17.4232 20.7926 15.9267 19.8978C13.8246 18.7021 11.0783 19.4388 9.84795 21.5795L7.23672 25.8724C6.04103 27.9475 6.77387 30.6899 8.90297 31.928C12.0619 33.7562 14.0329 37.1659 14.0329 40.8223C14.0329 44.4788 12.0619 47.8846 8.89525 49.7167C6.77773 50.9433 6.04489 53.6702 7.27143 55.7916L9.70523 59.9881C10.3069 61.0719 11.2905 61.8549 12.4283 62.175C13.5623 62.4913 14.812 62.3563 15.8534 61.7777C17.3846 60.879 19.1666 60.4123 20.9563 60.4123C21.8395 60.4123 22.7228 60.5242 23.5868 60.7556C26.1942 61.4576 28.4582 63.201 29.8005 65.5422C30.6722 67.0118 31.1543 68.7282 31.1698 70.4793C31.1698 72.9864 33.1831 74.9959 35.6594 74.9959H40.4923C42.9569 74.9959 44.9703 72.9979 44.9819 70.5333C44.9665 67.8102 46.031 65.2221 47.9788 63.2743C49.8996 61.3535 52.5841 60.2002 55.2687 60.2773C57.0275 60.3198 58.7207 60.7942 60.2134 61.6427C62.3618 62.8731 65.1041 62.1403 66.3461 60.0189L68.9072 55.7492C69.4781 54.7656 69.6439 53.5314 69.3392 52.3935C69.0384 51.2557 68.2824 50.2683 67.2641 49.6859C64.8804 48.3128 63.1795 46.0988 62.4736 43.4451C61.7755 40.8416 62.1574 37.999 63.5189 35.6577C64.406 34.1149 65.7059 32.8151 67.2641 31.9203C69.3546 30.6976 70.0875 27.9629 68.8725 25.8338C68.8224 25.749 68.7761 25.6603 68.7375 25.5677L66.4773 21.6489C65.2469 19.5082 62.5083 18.7716 60.36 19.9942C58.038 21.3674 55.2764 21.7608 52.6227 21.0626C49.9729 20.3761 47.7513 18.6983 46.3666 16.33C45.4794 14.8489 44.9973 13.1248 44.9819 11.3699C45.0166 10.0507 44.5537 8.86663 43.7129 7.99879C42.8759 7.13481 41.6995 6.64496 40.4923 6.64496ZM38.0928 27.7589C45.2939 27.7589 51.1528 33.6216 51.1528 40.8227C51.1528 48.0239 45.2939 53.8789 38.0928 53.8789C30.8917 53.8789 25.0328 48.0239 25.0328 40.8227C25.0328 33.6216 30.8917 27.7589 38.0928 27.7589ZM38.0928 33.5445C34.0815 33.5445 30.8184 36.8114 30.8184 40.8227C30.8184 44.8341 34.0815 48.0933 38.0928 48.0933C42.1041 48.0933 45.3672 44.8341 45.3672 40.8227C45.3672 36.8114 42.1041 33.5445 38.0928 33.5445Z" fill="#3F3D56"/>
</svg>
